<svg width="33" height="26" viewBox="0 0 33 26" fill="none" xmlns="http://www.w3.org/2000/svg">
<path d="M18.5243 5.66763C18.0982 5.07104 17.2459 4.98581 16.7345 5.49718L0.839563 21.2217C0.328197 21.733 0.413425 22.5853 0.967405 22.9688C3.60946 24.8439 6.93334 25.6109 10.2998 25.0569C11.8339 24.8012 13.2828 24.2473 14.6038 23.4376C21.0385 19.5597 22.3595 11.3353 18.5243 5.66763Z" fill="url(#paint0_linear_416_2295)"/>
<path d="M32.5016 6.73298C31.9051 6.13639 31.9051 5.96594 31.8624 5.79548C31.3937 2.4716 28.4959 0 25.1295 0C23.3823 0 21.763 0.639208 20.4845 1.83239L19.547 2.7699C19.1635 3.15342 19.1209 3.75002 19.4618 4.17615C23.4675 9.46027 23.2971 16.9603 18.9078 22.0313C24.9164 22.2018 29.9022 17.3438 29.9022 11.3779C29.9022 10.3978 29.7744 9.41765 29.5187 8.48015C29.4335 8.22447 29.5187 7.96878 29.6465 7.75572C29.817 7.54265 30.03 7.41481 30.3283 7.41481H32.246C32.5443 7.32958 32.7147 6.94605 32.5016 6.73298Z" fill="url(#paint1_linear_416_2295)"/>
<defs>
<linearGradient id="paint0_linear_416_2295" x1="18" y1="5" x2="0.500001" y2="25" gradientUnits="userSpaceOnUse">
<stop stop-color="#12D0AE"/>
<stop offset="1" stop-color="#03C5A2"/>
</linearGradient>
<linearGradient id="paint1_linear_416_2295" x1="25.7523" y1="0" x2="21.5001" y2="20.5" gradientUnits="userSpaceOnUse">
<stop stop-color="#3E21F3"/>
<stop offset="1" stop-color="#2815A3"/>
</linearGradient>
</defs>
</svg>
